name Walk2.mot
datacolumns 19
datarows 15
range 0.92400000 0.93800000
endheader

                time	   L_ground_force_vx	   L_ground_force_vy	   L_ground_force_vz	   L_ground_force_px	   L_ground_force_py	   L_ground_force_pz	   R_ground_force_vx	   R_ground_force_vy	   R_ground_force_vz	   R_ground_force_px	   R_ground_force_py	   R_ground_force_pz	   L_ground_torque_x	   L_ground_torque_y	   L_ground_torque_z	   R_ground_torque_x	   R_ground_torque_y	   R_ground_torque_z	
          0.92400000	          3.71892772	        712.53141694	         42.44483318	         -0.28166021	          0.00000000	         -0.02861110	          0.00000000	          0.00000000	          0.00000000	          0.00000000	          0.00000000	          0.00000000	          0.00000000	          0.78027751	          0.00000000	          0.00000000	          0.00000000	          0.00000000	
          0.92500000	          4.12656073	        713.22634074	         42.53741270	         -0.28123067	          0.00000000	         -0.02858377	          0.00000000	          0.00000000	          0.00000000	          0.00000000	          0.00000000	          0.00000000	          0.00000000	          0.80932712	          0.00000000	          0.00000000	          0.00000000	          0.00000000	
          0.92600000	          4.52196061	        713.91812396	         42.60975769	         -0.28082885	          0.00000000	         -0.02859487	          0.00000000	          0.00000000	          0.00000000	          0.00000000	          0.00000000	          0.00000000	          0.00000000	          0.83373667	          0.00000000	          0.00000000	          0.00000000	          0.00000000	
          0.92700000	          4.88819796	        714.64371109	         42.67155455	         -0.28045453	          0.00000000	         -0.02864543	          0.00000000	          0.00000000	          0.00000000	          0.00000000	          0.00000000	          0.00000000	          0.00000000	          0.84360112	          0.00000000	          0.00000000	          0.00000000	          0.00000000	
          0.92800000	          5.22448805	        715.40637184	         42.72855867	         -0.28008229	          0.00000000	         -0.02871569	          0.00000000	          0.00000000	          0.00000000	          0.00000000	          0.00000000	          0.00000000	          0.00000000	          0.83569101	          0.00000000	          0.00000000	          0.00000000	          0.00000000	
          0.92900000	          5.54695177	        716.20866594	         42.78015840	         -0.27967915	          0.00000000	         -0.02878895	          0.00000000	          0.00000000	          0.00000000	          0.00000000	          0.00000000	          0.00000000	          0.00000000	          0.81925004	          0.00000000	          0.00000000	          0.00000000	          0.00000000	
          0.93000000	          5.87911339	        717.07021758	         42.82103667	         -0.27923234	          0.00000000	         -0.02885464	          0.00000000	          0.00000000	          0.00000000	          0.00000000	          0.00000000	          0.00000000	          0.00000000	          0.81172389	          0.00000000	          0.00000000	          0.00000000	          0.00000000	
          0.93100000	          6.23965053	        718.00039478	         42.84509790	         -0.27875657	          0.00000000	         -0.02890940	          0.00000000	          0.00000000	          0.00000000	          0.00000000	          0.00000000	          0.00000000	          0.00000000	          0.82775181	          0.00000000	          0.00000000	          0.00000000	          0.00000000	
          0.93200000	          6.63566133	        718.97974519	         42.85180308	         -0.27827895	          0.00000000	         -0.02896260	          0.00000000	          0.00000000	          0.00000000	          0.00000000	          0.00000000	          0.00000000	          0.00000000	          0.86924972	          0.00000000	          0.00000000	          0.00000000	          0.00000000	
          0.93300000	          7.06645571	        719.95627244	         42.84645897	         -0.27781970	          0.00000000	         -0.02902849	          0.00000000	          0.00000000	          0.00000000	          0.00000000	          0.00000000	          0.00000000	          0.00000000	          0.92270842	          0.00000000	          0.00000000	          0.00000000	          0.00000000	
          0.93400000	          7.52767053	        720.86902533	         42.83408241	         -0.27738710	          0.00000000	         -0.02911382	          0.00000000	          0.00000000	          0.00000000	          0.00000000	          0.00000000	          0.00000000	          0.00000000	          0.97018844	          0.00000000	          0.00000000	          0.00000000	          0.00000000	
          0.93500000	          8.00866750	        721.70783242	         42.81586383	         -0.27698393	          0.00000000	         -0.02920999	          0.00000000	          0.00000000	          0.00000000	          0.00000000	          0.00000000	          0.00000000	          0.00000000	          1.00380157	          0.00000000	          0.00000000	          0.00000000	          0.00000000	
          0.93600000	          8.49418647	        722.52838800	         42.79214220	         -0.27660549	          0.00000000	         -0.02929316	          0.00000000	          0.00000000	          0.00000000	          0.00000000	          0.00000000	          0.00000000	          0.00000000	          1.02707398	          0.00000000	          0.00000000	          0.00000000	          0.00000000	
          0.93700000	          8.97425122	        723.41095227	         42.76872790	         -0.27623696	          0.00000000	         -0.02933960	          0.00000000	          0.00000000	          0.00000000	          0.00000000	          0.00000000	          0.00000000	          0.00000000	          1.04625237	          0.00000000	          0.00000000	          0.00000000	          0.00000000	
          0.93800000	          9.45009175	        724.41226092	         42.75698586	         -0.27586314	          0.00000000	         -0.02933937	          0.00000000	          0.00000000	          0.00000000	          0.00000000	          0.00000000	          0.00000000	          0.00000000	          1.06310799	          0.00000000	          0.00000000	          0.00000000	          0.00000000	
